<svg width="422" height="109" viewBox="0 0 422 109" fill="none" xmlns="http://www.w3.org/2000/svg">
<path d="M86.4428 98.9556C87.8859 99.746 89.568 100.212 91.8577 100.212C94.888 100.212 97.3819 98.8649 97.3819 95.8352C97.3819 91.6449 86.1251 91.1247 86.1251 85.5271C86.1251 82.1009 89.568 79.9634 93.8982 79.9634C95.0973 79.9634 97.0285 80.1125 98.7157 80.6691L98.3335 82.5898C97.2386 82.0755 95.5193 81.7951 93.8609 81.7951C91.3298 81.7951 88.5469 82.7177 88.5469 85.4712C88.5469 89.7522 99.8088 89.7785 99.8088 96.0174C99.8088 100.336 95.5506 102.048 91.7543 102.048C89.3638 102.048 87.4936 101.618 86.1988 101.124L86.4428 98.9556Z" fill="#CA082C"/>
<path d="M115.042 92.7801C115.042 90.0529 113.775 87.3638 110.472 87.3638C107.197 87.3638 105.189 90.2113 105.189 92.7801H115.042ZM116.132 101.189C114.58 101.74 112.58 102.048 110.924 102.048C104.984 102.048 102.766 98.5624 102.766 93.8789C102.766 89.104 105.793 85.7075 110.325 85.7075C115.386 85.7075 117.469 89.2565 117.469 93.4486V94.4288H105.188C105.188 97.7347 107.234 100.392 111.097 100.392C112.721 100.392 115.079 99.8146 116.132 99.2258V101.189Z" fill="#CA082C"/>
<path d="M127.175 100.026C131.189 100.026 132.627 96.7206 132.627 93.8782C132.627 90.1165 131.358 87.363 127.315 87.363C123.094 87.363 122.001 90.8485 122.001 93.8782C122.001 96.94 123.413 100.026 127.175 100.026ZM134.844 100.392C134.844 104.738 132.595 108.286 126.437 108.286C124.079 108.286 121.938 107.703 121.023 107.458L121.195 105.533C122.566 106.148 124.54 106.631 126.472 106.631C132.17 106.631 132.658 103.023 132.658 98.6201H132.595C131.398 100.88 129.43 101.681 127.141 101.681C121.415 101.681 119.579 97.3365 119.579 93.8782C119.579 89.1346 121.689 85.7126 126.965 85.7126C129.358 85.7126 130.907 85.9829 132.555 87.851H132.627V86.0727H134.844V100.392V100.392Z" fill="#CA082C"/>
<path d="M153.84 98.0108C153.84 99.1987 153.84 100.425 153.975 101.682H151.835V98.8911H151.763C151.028 100.303 149.691 102.049 145.961 102.049C141.53 102.049 139.843 99.4757 139.843 96.0487V86.0752H142.058V95.5607C142.058 98.4997 143.255 100.394 146.311 100.394C150.357 100.394 151.627 97.3119 151.627 94.7008V86.0743H153.84V98.0108Z" fill="#CA082C"/>
<path d="M159.048 89.5658C159.048 87.8519 159.048 87.2106 158.907 86.0744H161.126V89.0778H161.189C161.996 87.3309 163.513 85.7135 165.805 85.7135C166.33 85.7135 166.957 85.8033 167.344 85.894V87.9104C166.893 87.7875 166.293 87.7308 165.731 87.7308C162.213 87.7308 161.264 91.1569 161.264 93.968V101.681H159.048V89.5658Z" fill="#CA082C"/>
<path d="M170.408 101.682H172.626V86.0693H170.408V101.682ZM170.408 81.9204H172.626V79.3474H170.408V81.9204Z" fill="#CA082C"/>
<path d="M184.546 100.398C188.486 100.398 189.857 96.7214 189.857 93.8789C189.857 91.0348 188.486 87.3638 184.546 87.3638C180.328 87.3638 179.238 90.8493 179.238 93.8789C179.238 96.9069 180.328 100.398 184.546 100.398ZM192.075 101.682H189.857V99.1987H189.789C188.595 101.184 186.767 102.047 184.196 102.047C179.274 102.047 176.804 98.4989 176.804 93.8781C176.804 89.1345 178.922 85.7126 184.196 85.7126C187.719 85.7126 189.47 87.9416 189.789 88.7109H189.857V78.7323H192.075V101.682Z" fill="#CA082C"/>
<path d="M206.471 93.8138H205.834C202.003 93.8138 197.426 94.1527 197.426 97.5797C197.426 99.6283 199.113 100.398 201.159 100.398C206.365 100.398 206.471 96.4444 206.471 94.7635V93.8138ZM206.677 99.1674H206.609C205.627 101.035 203.128 102.048 200.91 102.048C195.808 102.048 194.993 99.0505 194.993 97.6399C194.993 92.4083 201.403 92.1651 206.049 92.1651H206.471V91.3738C206.471 88.711 205.377 87.3639 202.385 87.3639C200.52 87.3639 198.763 87.724 197.109 88.6474V86.7861C198.482 86.2032 200.804 85.7135 202.385 85.7135C206.818 85.7135 208.688 87.4545 208.688 91.5229V98.4024C208.688 99.6554 208.688 100.609 208.864 101.681H206.677V99.1674Z" fill="#CA082C"/>
<path d="M219.59 100.398C223.529 100.398 224.899 96.7214 224.899 93.8789C224.899 91.0348 223.529 87.3638 219.59 87.3638C215.374 87.3638 214.284 90.8493 214.284 93.8789C214.284 96.9069 215.374 100.398 219.59 100.398ZM227.116 101.682H224.899V99.1987H224.837C223.635 101.184 221.808 102.047 219.242 102.047C214.314 102.047 211.855 98.4989 211.855 93.8781C211.855 89.1345 213.967 85.7126 219.242 85.7126C222.759 85.7126 224.521 87.9416 224.837 88.7109H224.899V78.7323H227.116V101.682Z" fill="#CA082C"/>
<path d="M245.839 99.0819H245.868L251.041 86.0736H253.363L246.187 104.004C245.343 106.143 244.078 108.286 241.578 108.286C240.771 108.286 239.925 108.19 239.188 108.042L239.398 106.387C239.819 106.514 240.238 106.631 241.053 106.631C242.953 106.631 243.584 105.251 244.287 103.241L244.747 101.862L238.381 86.0736H240.804L245.839 99.0819Z" fill="#CA082C"/>
<path d="M279.819 82.7169C278.272 82.012 276.049 81.7934 274.33 81.7934C267.958 81.7934 264.376 85.7127 264.376 91.0027C264.376 96.3868 267.859 100.212 274.33 100.212C275.945 100.212 278.408 100.026 279.819 99.2936L279.959 101.124C278.62 101.83 275.877 102.047 274.33 102.047C266.589 102.047 261.948 97.6068 261.948 91.0027C261.948 84.5206 266.729 79.9634 274.33 79.9634C275.773 79.9634 278.689 80.1761 279.959 80.7589L279.819 82.7169Z" fill="#CA082C"/>
<path d="M289.317 100.393C293.182 100.393 295.257 97.4908 295.257 93.8782C295.257 90.2707 293.182 87.3648 289.317 87.3648C285.44 87.3648 283.367 90.2716 283.367 93.8782C283.367 97.4908 285.439 100.393 289.317 100.393ZM289.317 85.7135C295.113 85.7135 297.687 89.6285 297.687 93.8782C297.687 98.1287 295.113 102.049 289.317 102.049C283.509 102.049 280.941 98.1287 280.941 93.8782C280.941 89.6285 283.509 85.7135 289.317 85.7135Z" fill="#CA082C"/>
<path d="M300.817 89.7514C300.817 88.5577 300.817 87.3326 300.676 86.0744H302.823V88.8652H302.889C303.635 87.4597 304.966 85.7135 308.694 85.7135C313.126 85.7135 314.814 88.2815 314.814 91.7085V101.681H312.602V92.1965C312.602 89.2625 311.402 87.3639 308.346 87.3639C304.3 87.3639 303.03 90.4512 303.03 93.0505V101.682H300.817V89.7514V89.7514Z" fill="#CA082C"/>
<path d="M331.417 86.0744H333.635V101.682H331.417V86.0744ZM333.635 81.9154H331.417V79.3525H333.635V81.9154ZM321.535 87.7239H317.911V86.0744H321.535V84.9442C321.535 81.6722 321.675 78.3663 326.28 78.3663C326.987 78.3663 327.935 78.4621 328.356 78.6739L328.224 80.3539C327.762 80.1421 327.093 80.0159 326.461 80.0159C323.437 80.0159 323.753 82.8642 323.753 84.7315V86.0736H327.793V87.7231H323.753V101.681H321.535V87.7239Z" fill="#CA082C"/>
<path d="M349.325 93.8138H348.688C344.857 93.8138 340.286 94.1527 340.286 97.5797C340.286 99.6283 341.973 100.398 344.013 100.398C349.219 100.398 349.325 96.4444 349.325 94.7635V93.8138V93.8138ZM349.537 99.1674H349.463C348.481 101.035 345.982 102.048 343.765 102.048C338.665 102.048 337.853 99.0505 337.853 97.6399C337.853 92.4083 344.258 92.1651 348.902 92.1651H349.325V91.3738C349.325 88.711 348.231 87.3639 345.247 87.3639C343.377 87.3639 341.62 87.724 339.968 88.6474V86.7861C341.336 86.2032 343.659 85.7135 345.247 85.7135C349.674 85.7135 351.538 87.4545 351.538 91.5229V98.4024C351.538 99.6554 351.538 100.609 351.716 101.681H349.537V99.1674Z" fill="#CA082C"/>
<path d="M355.764 89.7514C355.764 88.5577 355.764 87.3326 355.623 86.0744H357.767V88.8652H357.836C358.576 87.4597 359.91 85.7135 363.643 85.7135C368.071 85.7135 369.764 88.2815 369.764 91.7085V101.681H367.544V92.1965C367.544 89.2625 366.346 87.3639 363.287 87.3639C359.242 87.3639 357.979 90.4512 357.979 93.0505V101.682H355.764V89.7514V89.7514Z" fill="#CA082C"/>
<path d="M373.313 100.059L384.117 87.7247H373.737V86.0743H386.679V87.7247L375.884 100.026H386.679V101.682H373.313V100.059Z" fill="#CA082C"/>
<path d="M400.329 93.8138H399.695C395.863 93.8138 391.29 94.1527 391.29 97.5797C391.29 99.6283 392.977 100.398 395.02 100.398C400.226 100.398 400.329 96.4444 400.329 94.7635V93.8138ZM400.539 99.1674H400.47C399.486 101.035 396.99 102.048 394.772 102.048C389.673 102.048 388.861 99.0505 388.861 97.6399C388.861 92.4083 395.265 92.1651 399.908 92.1651H400.33V91.3738C400.33 88.711 399.237 87.3639 396.254 87.3639C394.385 87.3639 392.634 87.724 390.975 88.6474V86.7861C392.35 86.2032 394.671 85.7135 396.254 85.7135C400.68 85.7135 402.548 87.4545 402.548 91.5229V98.4024C402.548 99.6554 402.548 100.609 402.721 101.681H400.539V99.1674V99.1674Z" fill="#CA082C"/>
<path d="M124.854 21.6888V41.2521H99.0334V21.6888H86.1242V70.1033H99.0334V48.8821H124.854V70.1033H137.769V21.6888H124.854Z" fill="#CA082C"/>
<path d="M171.115 31.3997H171.285L179.848 51.3772H162.553L171.115 31.3997ZM165.149 21.6888L139.413 70.1033H153.134L158.905 59.0073H185.681L191.358 70.1033H206.024L180.1 21.6888H165.149V21.6888Z" fill="#CA082C"/>
<path d="M273.996 21.6906H260.736V70.1051H273.996V21.6906Z" fill="#CA082C"/>
<path d="M279.797 21.6888V29.3189H298.511V70.1059H311.613V29.3189H330.327V21.6888H279.797Z" fill="#CA082C"/>
<path d="M349.958 31.3997H350.146L359.591 51.3772H340.51L349.958 31.3997ZM342.941 21.6888L317.495 70.1033H331.06L336.768 59.0073H363.24L368.851 70.1033H383.348L357.72 21.6888H342.941V21.6888Z" fill="#CA082C"/>
<path d="M370.559 21.6888V29.3189H389.463V70.1059H402.699V29.3189H415.199L421.601 21.6888H370.559Z" fill="#CA082C"/>
<path d="M97.3938 1.92408L102.865 12.1246H91.8883L97.3938 1.92408ZM96.1617 0.177124L85.804 18.6661H88.2292L90.9451 13.7115H103.694L106.413 18.6661H109.022L98.9886 0.177124H96.1617Z" fill="#CA082C"/>
<path d="M109.939 0.177124V18.6661H112.42V9.9549H121.439V8.36551H112.42V1.76905H121.869V0.177124H109.939Z" fill="#CA082C"/>
<path d="M52.991 36.1306L61.5286 36.7703L62.9963 41.4444L59.1482 41.2072L63.0784 54.3086L49.8845 53.9723L51.0344 58.3558L45.7331 58.2898L40.7335 38.0352L45.8017 38.3783L48.4855 48.6611L56.6671 48.9898L52.991 36.1306ZM38.2972 58.1813L37.2575 53.6461L22.0391 53.2581L19.3927 38.7545L14.5337 38.4512L13.6566 33.1705L24.1364 33.9694L26.8879 47.7859L36.0465 48.1671L33.6569 37.5599L38.9065 37.92L43.8426 58.2779L38.2972 58.1813ZM38.9039 30.6542L34.656 13.4259L39.409 14.0486L40.3081 17.4706L52.4385 18.949L55.8485 30.3111L59.6143 30.6567L61.0134 35.1521L52.5089 34.4802L49.1295 22.7047L41.4622 21.8389L43.8756 31.0888L38.9039 30.6542ZM28.0124 12.5533L32.9298 13.2074L37.1159 30.4966L31.9638 30.0527L29.8114 20.5579L21.2934 19.6073L23.7864 32.1987L13.36 31.3667L12.5135 26.3257L17.2242 26.746L14.9879 14.3994L28.7953 16.0591L28.0124 12.5533ZM0 70.2161H70.8914V0H0V70.2161Z" fill="#CA082C"/>
<path d="M222.815 62.292H229.026C235.143 62.292 242.577 61.1805 242.577 55.5625C242.577 49.2516 235.613 48.2832 229.026 48.2832H222.815V62.292ZM222.815 41.0674H228.179C233.732 41.0674 240.602 40.1668 240.602 35.1724C240.602 29.5528 233.92 29.1368 227.897 29.1368H222.815V41.0674ZM209.64 21.5067H232.603C241.072 21.5067 253.776 23.3147 253.776 33.9245C253.776 39.6805 248.506 43.7031 240.696 44.7452V44.8816C249.635 45.5068 255.753 49.9488 255.753 55.9116C255.753 68.12 240.884 69.9212 232.603 69.9212H209.64V21.5067Z" fill="#CA082C"/>
<path d="M126.185 9.19402H127.904C131.627 9.19402 135.136 8.8763 135.136 5.53993C135.136 3.20753 133.346 1.88587 130.195 1.88587H126.185V9.19402V9.19402ZM123.716 0.293945H129.873C134.562 0.293945 137.605 2.04091 137.605 5.53993C137.605 8.9822 134.099 10.7834 129.624 10.7834H126.185V18.7829H123.716V0.293945Z" fill="#CA082C"/>
</svg>
